<svg width="102" height="102" viewBox="0 0 102 102" fill="none" xmlns="http://www.w3.org/2000/svg">
<circle cx="51" cy="51" r="51" fill="#0093D9"/>
<g clip-path="url(#clip0_0_282)">
<path d="M17.874 47.347C37.4 38.8557 62.6805 28.5173 66.1444 27.1112C75.3068 23.3618 78.1003 24.0786 76.7035 32.3769C75.6979 38.3319 72.7928 58.0714 70.4742 70.3397C69.1054 77.618 66.0327 78.5002 61.1721 75.3297C58.8535 73.8134 47.0932 66.1492 44.5512 64.3572C42.2327 62.7306 39.0202 60.7456 43.0427 56.8584C44.4674 55.4799 53.8533 46.6302 61.1721 39.7379C62.1219 38.8281 60.9207 37.3394 59.8312 38.0838C49.9704 44.5349 36.3106 53.4949 34.5507 54.6528C31.9249 56.4173 29.3829 57.2168 24.8575 55.9486C21.4216 54.9837 18.0974 53.8258 16.7845 53.3847C11.7564 51.6754 12.9575 49.4974 17.8181 47.3746L17.874 47.347Z" fill="white"/>
</g>
<defs>
<clipPath id="clip0_0_282">
<rect width="63.4667" height="52.1333" fill="white" transform="translate(13.6 24.9331)"/>
</clipPath>
</defs>
</svg>
