<svg width="102" height="102" viewBox="0 0 102 102" fill="none" xmlns="http://www.w3.org/2000/svg">
<circle cx="51" cy="51" r="51" fill="#4D167C"/>
<path d="M71.0613 62.2512C73.048 63.9282 75.5565 65.3278 74.3683 68.8401C73.1423 72.4976 68.8671 76.1948 65.2206 76.1486C64.7113 76.0033 63.6928 75.8382 62.7812 75.4289C46.7743 68.1865 35.1432 56.3292 28.5354 39.2893C26.3224 33.5785 28.6297 28.759 34.2127 26.785C35.2123 26.4351 36.1994 26.4087 37.1802 26.785C39.563 27.7027 45.5923 36.424 45.7306 39.0318C45.8312 41.0256 44.5361 42.115 43.2535 43.0261C40.8267 44.7558 40.8141 46.9543 41.8515 49.397C44.1903 54.9296 48.1952 58.7323 53.382 61.2015C55.2618 62.0994 57.0599 62.007 58.3425 59.9669C60.631 56.3292 63.435 56.5074 66.5031 58.7653C68.0372 59.9009 69.6027 61.0101 71.0613 62.2446V62.2512ZM53.1117 27.8611C64.8119 29.7493 70.2125 35.5988 71.7088 47.9776C71.8472 49.1198 71.4385 50.8429 72.9914 50.8759C74.6135 50.9089 74.2237 49.2122 74.2362 48.0634C74.3746 36.4042 64.6925 25.5967 53.4449 25.2005C52.6024 25.3326 50.842 24.5865 50.7351 26.5803C50.6597 27.9338 52.1372 27.7093 53.1117 27.8611ZM55.4001 31.2546C54.2748 31.1094 52.791 30.5548 52.5269 32.1987C52.2503 33.9152 53.9101 33.7502 54.9726 33.9944C62.2028 35.6912 64.7176 38.4508 65.9059 45.9838C66.0819 47.0797 65.7361 48.7897 67.5154 48.5058C68.8294 48.2945 68.3578 46.8354 68.4647 45.9772C68.5276 38.7479 62.624 32.1723 55.4001 31.2546ZM56.0666 37.1701C55.3184 37.1899 54.5765 37.2757 54.2999 38.1141C53.885 39.3751 54.7589 39.6722 55.6453 39.8241C58.6129 40.3258 60.172 42.1612 60.4675 45.2641C60.543 46.1092 61.0585 46.7892 61.8318 46.6968C62.9069 46.5582 63.0012 45.5546 62.9698 44.6039C63.0264 41.118 59.273 37.0842 56.0666 37.1701Z" fill="white"/>
</svg>
